<svg width="350" height="350" viewBox="0 0 350 350" fill="none" xmlns="http://www.w3.org/2000/svg">
<circle cx="175" cy="175" r="175" fill="#65C2CB"/>
<path d="M84 70.4218C84 65.2708 85.9166 60.3308 89.3281 56.6885C92.7396 53.0462 97.3666 51 102.191 51H247.721C252.545 51 257.172 53.0462 260.584 56.6885C263.995 60.3308 265.912 65.2708 265.912 70.4218V177.242C265.912 182.393 263.995 187.333 260.584 190.975C257.172 194.617 252.545 196.663 247.721 196.663H102.191C97.3666 196.663 92.7396 194.617 89.3281 190.975C85.9166 187.333 84 182.393 84 177.242V70.4218ZM247.721 70.4218H102.191V177.242H247.721V70.4218ZM265.912 216.085C265.912 218.661 264.954 221.131 263.248 222.952C261.542 224.773 259.229 225.796 256.816 225.796H93.0956C90.6833 225.796 88.3698 224.773 86.664 222.952C84.9583 221.131 84 218.661 84 216.085C84 213.51 84.9583 211.04 86.664 209.219C88.3698 207.397 90.6833 206.374 93.0956 206.374H256.816C259.229 206.374 261.542 207.397 263.248 209.219C264.954 211.04 265.912 213.51 265.912 216.085Z" fill="#1E4065"/>
<path d="M149.632 289.952C150.512 289.952 151.272 289.888 151.912 289.76C152.568 289.616 153.128 289.44 153.592 289.232C154.056 289.024 154.448 288.8 154.768 288.56C155.088 288.304 155.376 288.072 155.632 287.864C155.888 287.656 156.128 287.488 156.352 287.36C156.576 287.216 156.816 287.144 157.072 287.144C157.328 287.144 157.536 287.192 157.696 287.288C157.872 287.368 158 287.464 158.08 287.576L160.816 290.864C159.296 292.672 157.488 294.048 155.392 294.992C153.312 295.92 150.944 296.384 148.288 296.384C146.08 296.384 144.12 296 142.408 295.232C140.712 294.448 139.28 293.376 138.112 292.016C136.944 290.656 136.056 289.048 135.448 287.192C134.856 285.32 134.56 283.304 134.56 281.144C134.56 279.144 134.784 277.248 135.232 275.456C135.68 273.664 136.312 272.008 137.128 270.488C137.944 268.968 138.92 267.6 140.056 266.384C141.208 265.168 142.48 264.136 143.872 263.288C145.264 262.44 146.76 261.792 148.36 261.344C149.96 260.88 151.632 260.648 153.376 260.648C154.688 260.648 155.88 260.776 156.952 261.032C158.04 261.272 159.016 261.616 159.88 262.064C160.76 262.496 161.544 263.016 162.232 263.624C162.92 264.232 163.52 264.904 164.032 265.64L161.296 268.808C161.104 269.032 160.88 269.232 160.624 269.408C160.368 269.584 160.032 269.672 159.616 269.672C159.344 269.672 159.096 269.608 158.872 269.48C158.648 269.352 158.416 269.2 158.176 269.024C157.952 268.832 157.696 268.624 157.408 268.4C157.12 268.176 156.776 267.976 156.376 267.8C155.976 267.608 155.496 267.448 154.936 267.32C154.392 267.192 153.744 267.128 152.992 267.128C151.52 267.128 150.144 267.44 148.864 268.064C147.6 268.688 146.496 269.584 145.552 270.752C144.624 271.904 143.896 273.312 143.368 274.976C142.84 276.624 142.576 278.472 142.576 280.52C142.576 282.008 142.752 283.336 143.104 284.504C143.472 285.672 143.968 286.664 144.592 287.48C145.216 288.28 145.96 288.896 146.824 289.328C147.688 289.744 148.624 289.952 149.632 289.952ZM178.413 289.952C179.293 289.952 180.053 289.888 180.693 289.76C181.349 289.616 181.909 289.44 182.373 289.232C182.837 289.024 183.229 288.8 183.549 288.56C183.869 288.304 184.157 288.072 184.413 287.864C184.669 287.656 184.909 287.488 185.133 287.36C185.357 287.216 185.597 287.144 185.853 287.144C186.109 287.144 186.317 287.192 186.477 287.288C186.653 287.368 186.781 287.464 186.861 287.576L189.597 290.864C188.077 292.672 186.269 294.048 184.173 294.992C182.093 295.92 179.725 296.384 177.069 296.384C174.861 296.384 172.901 296 171.189 295.232C169.493 294.448 168.061 293.376 166.893 292.016C165.725 290.656 164.837 289.048 164.229 287.192C163.637 285.32 163.341 283.304 163.341 281.144C163.341 279.144 163.565 277.248 164.013 275.456C164.461 273.664 165.093 272.008 165.909 270.488C166.725 268.968 167.701 267.6 168.837 266.384C169.989 265.168 171.261 264.136 172.653 263.288C174.045 262.44 175.541 261.792 177.141 261.344C178.741 260.88 180.413 260.648 182.157 260.648C183.469 260.648 184.661 260.776 185.733 261.032C186.821 261.272 187.797 261.616 188.661 262.064C189.541 262.496 190.325 263.016 191.013 263.624C191.701 264.232 192.301 264.904 192.813 265.64L190.077 268.808C189.885 269.032 189.661 269.232 189.405 269.408C189.149 269.584 188.813 269.672 188.397 269.672C188.125 269.672 187.877 269.608 187.653 269.48C187.429 269.352 187.197 269.2 186.957 269.024C186.733 268.832 186.477 268.624 186.189 268.4C185.901 268.176 185.557 267.976 185.157 267.8C184.757 267.608 184.277 267.448 183.717 267.32C183.173 267.192 182.525 267.128 181.773 267.128C180.301 267.128 178.925 267.44 177.645 268.064C176.381 268.688 175.277 269.584 174.333 270.752C173.405 271.904 172.677 273.312 172.149 274.976C171.621 276.624 171.357 278.472 171.357 280.52C171.357 282.008 171.533 283.336 171.885 284.504C172.253 285.672 172.749 286.664 173.373 287.48C173.997 288.28 174.741 288.896 175.605 289.328C176.469 289.744 177.405 289.952 178.413 289.952ZM214.302 268.04C214.014 268.408 213.734 268.688 213.462 268.88C213.19 269.056 212.862 269.144 212.478 269.144C212.11 269.144 211.742 269.024 211.374 268.784C211.006 268.544 210.59 268.28 210.126 267.992C209.678 267.704 209.158 267.44 208.566 267.2C207.974 266.96 207.278 266.84 206.478 266.84C205.742 266.84 205.094 266.944 204.534 267.152C203.99 267.36 203.534 267.648 203.166 268.016C202.798 268.384 202.518 268.816 202.326 269.312C202.15 269.808 202.062 270.352 202.062 270.944C202.062 271.584 202.238 272.12 202.59 272.552C202.958 272.984 203.438 273.368 204.03 273.704C204.638 274.024 205.318 274.32 206.07 274.592C206.822 274.864 207.59 275.16 208.374 275.48C209.174 275.8 209.95 276.168 210.702 276.584C211.47 277 212.15 277.52 212.742 278.144C213.35 278.768 213.83 279.52 214.182 280.4C214.55 281.28 214.734 282.336 214.734 283.568C214.734 285.328 214.43 286.984 213.822 288.536C213.214 290.088 212.342 291.448 211.206 292.616C210.07 293.768 208.686 294.688 207.054 295.376C205.438 296.048 203.614 296.384 201.582 296.384C200.574 296.384 199.558 296.272 198.534 296.048C197.526 295.824 196.55 295.512 195.606 295.112C194.678 294.696 193.814 294.208 193.014 293.648C192.214 293.088 191.534 292.464 190.974 291.776L193.758 288.128C193.982 287.856 194.254 287.632 194.574 287.456C194.91 287.28 195.246 287.192 195.582 287.192C196.03 287.192 196.462 287.352 196.878 287.672C197.31 287.976 197.782 288.32 198.294 288.704C198.806 289.072 199.398 289.416 200.07 289.736C200.758 290.04 201.598 290.192 202.59 290.192C204.046 290.192 205.166 289.8 205.95 289.016C206.75 288.216 207.15 287.04 207.15 285.488C207.15 284.768 206.966 284.176 206.598 283.712C206.246 283.248 205.774 282.856 205.182 282.536C204.606 282.216 203.942 281.936 203.19 281.696C202.438 281.44 201.67 281.168 200.886 280.88C200.102 280.592 199.334 280.256 198.582 279.872C197.83 279.472 197.158 278.96 196.566 278.336C195.99 277.696 195.518 276.92 195.15 276.008C194.798 275.08 194.622 273.944 194.622 272.6C194.622 271.048 194.91 269.56 195.486 268.136C196.078 266.696 196.918 265.424 198.006 264.32C199.094 263.216 200.414 262.336 201.966 261.68C203.518 261.024 205.262 260.696 207.198 260.696C208.19 260.696 209.15 260.8 210.078 261.008C211.022 261.216 211.902 261.504 212.718 261.872C213.534 262.24 214.278 262.68 214.95 263.192C215.622 263.688 216.19 264.232 216.654 264.824L214.302 268.04Z" fill="#1E4065"/>
</svg>
